<svg xmlns="http://www.w3.org/2000/svg" viewBox="0 0 100 100">
<defs>
<radialGradient id="dark-skinlite" cx="35%" cy="30%" r="75%">
<stop offset="0%" stop-color="#FFFFFF" stop-opacity="0.35"/>
<stop offset="100%" stop-color="#FFFFFF" stop-opacity="0"/>
</radialGradient>
</defs>
<path d="M 39.00 42.00 Q 34.50 62.70 24.80 84.00 Q 24.00 87.20 27.00 88.00 L 49.00 88.00 L 49.00 42.00 Z" fill="#9E1B32" stroke="#0A0A0F" stroke-width="1.4" stroke-linejoin="round" stroke-linecap="round"/><path d="M 61.00 42.00 Q 65.50 62.70 75.20 84.00 Q 76.00 87.20 73.00 88.00 L 51.00 88.00 L 51.00 42.00 Z" fill="#6E1322" stroke="#0A0A0F" stroke-width="1.4" stroke-linejoin="round" stroke-linecap="round"/><path d="M 37.00 40.00 L 63.00 40.00 Q 66.20 52.50 65.00 65.00 Q 70.80 77.50 70.00 90.00 L 30.00 90.00 Q 34.20 77.50 35.00 65.00 Q 35.80 52.50 37.00 40.00 Z" fill="#3A3742" stroke="#0A0A0F" stroke-width="1.4" stroke-linejoin="round" stroke-linecap="round"/><path d="M 50.00 40.00 L 63.00 40.00 Q 66.20 52.50 65.00 65.00 Q 70.80 77.50 70.00 90.00 L 51.60 90.00 Z" fill="#232028"/><path d="M 39.00 58.00 L 61.00 56.40 L 64.00 74.00 L 36.00 75.60 Z" fill="#9E1B32" stroke="#0A0A0F" stroke-width="1.4" stroke-linejoin="round" stroke-linecap="round"/><circle cx="50.00" cy="66.00" r="2.30" fill="#B4933A" stroke="#0A0A0F" stroke-width="1.4"/><circle cx="50.00" cy="66.00" r="1.35" fill="#FF3B30"/><path d="M 43.40 34.00 Q 42.40 38.00 47.69 46.50 Q 50.00 48.70 52.31 46.50 Q 57.60 38.00 56.60 34.00 Z" fill="#2B2B33" stroke="#0A0A0F" stroke-width="1.4" stroke-linejoin="round" stroke-linecap="round"/><circle cx="50.00" cy="27.00" r="7.20" fill="#E3B98F" stroke="#0A0A0F" stroke-width="1.4"/><circle cx="48.30" cy="27.00" r="0.55" fill="#FF3B30"/><circle cx="51.70" cy="27.00" r="0.55" fill="#FF3B30"/><path d="M 48.90 29.30 Q 50.00 30.30 51.10 29.30" fill="none" stroke="#0A0A0F" stroke-width="0.5" stroke-linecap="round"/><path d="M 37.50 17.60 L 39.40 14.00 L 41.30 17.60 Z" fill="#B4933A" stroke="#0A0A0F" stroke-width="1.4" stroke-linejoin="round" stroke-linecap="round"/><circle cx="39.40" cy="14.00" r="0.90" fill="#FF3B30" stroke="#0A0A0F" stroke-width="1.4"/><path d="M 42.58 17.60 L 44.48 11.00 L 46.38 17.60 Z" fill="#B4933A" stroke="#0A0A0F" stroke-width="1.4" stroke-linejoin="round" stroke-linecap="round"/><circle cx="44.48" cy="11.00" r="0.90" fill="#FF3B30" stroke="#0A0A0F" stroke-width="1.4"/><path d="M 48.10 17.60 L 50.00 8.00 L 51.90 17.60 Z" fill="#B4933A" stroke="#0A0A0F" stroke-width="1.4" stroke-linejoin="round" stroke-linecap="round"/><circle cx="50.00" cy="8.00" r="0.90" fill="#FF3B30" stroke="#0A0A0F" stroke-width="1.4"/><path d="M 53.62 17.60 L 55.52 11.00 L 57.42 17.60 Z" fill="#B4933A" stroke="#0A0A0F" stroke-width="1.4" stroke-linejoin="round" stroke-linecap="round"/><circle cx="55.52" cy="11.00" r="0.90" fill="#FF3B30" stroke="#0A0A0F" stroke-width="1.4"/><path d="M 58.70 17.60 L 60.60 14.00 L 62.50 17.60 Z" fill="#B4933A" stroke="#0A0A0F" stroke-width="1.4" stroke-linejoin="round" stroke-linecap="round"/><circle cx="60.60" cy="14.00" r="0.90" fill="#FF3B30" stroke="#0A0A0F" stroke-width="1.4"/><rect x="38.00" y="17.00" width="24.00" height="3.50" rx="0.8" fill="#B4933A" stroke="#0A0A0F" stroke-width="1.4" stroke-linejoin="round" stroke-linecap="round"/><circle cx="50.00" cy="18.75" r="1.50" fill="#FF3B30" stroke="#0A0A0F" stroke-width="1.4"/><rect x="49.40" y="5.00" width="1.2" height="3.00" fill="#8A6E24" stroke="#0A0A0F" stroke-width="0.5" stroke-linejoin="round" stroke-linecap="round"/><rect x="48.30" y="6.10" width="3.4" height="1.2" fill="#8A6E24" stroke="#0A0A0F" stroke-width="0.5" stroke-linejoin="round" stroke-linecap="round"/><path d="M 30.00 90.00 L 70.00 90.00 Q 71.20 90.00 73.00 95.40 Q 73.40 97.00 71.40 97.00 L 28.60 97.00 Q 26.60 97.00 27.00 95.40 Q 28.80 90.00 30.00 90.00 Z" fill="#3A3742" stroke="#0A0A0F" stroke-width="1.4" stroke-linejoin="round" stroke-linecap="round"/><rect x="26.20" y="95.40" width="47.60" height="1.4" rx="0.6" fill="#B4933A" stroke="#0A0A0F" stroke-width="0.6"/>
</svg>
